<svg width="24" height="25" viewBox="0 0 24 25" fill="none" xmlns="http://www.w3.org/2000/svg">
<path d="M20.0889 2.40039H3.91109C2.6347 2.40039 1.59998 3.43511 1.59998 4.7115V20.8893C1.59998 22.1657 2.6347 23.2004 3.91109 23.2004H20.0889C21.3653 23.2004 22.4 22.1657 22.4 20.8893V4.7115C22.4 3.43511 21.3653 2.40039 20.0889 2.40039Z" stroke="#A0A8B0" stroke-width="2" stroke-linecap="round" stroke-linejoin="round"/>
<path d="M18.4 22.3996V20.7996C18.4 19.0323 16.9673 17.5996 15.2 17.5996H8.79998C7.03266 17.5996 5.59998 19.0323 5.59998 20.7996V22.3996" stroke="#A0A8B0" stroke-width="2" stroke-linecap="round" stroke-linejoin="round"/>
<path fill-rule="evenodd" clip-rule="evenodd" d="M12 13.5992C13.7674 13.5992 15.2 12.1665 15.2 10.3992C15.2 8.63191 13.7674 7.19922 12 7.19922C10.2327 7.19922 8.80005 8.63191 8.80005 10.3992C8.80005 12.1665 10.2327 13.5992 12 13.5992Z" stroke="#A0A8B0" stroke-width="2" stroke-linecap="round" stroke-linejoin="round"/>
</svg>
