<svg width="24" height="24" viewBox="0 0 24 24" fill="none" xmlns="http://www.w3.org/2000/svg">
<path d="M17.5385 8.15925C17.5385 6.63139 16.955 5.1661 15.9164 4.08574C14.8777 3.00538 13.469 2.39844 12.0001 2.39844C10.5312 2.39844 9.12245 3.00538 8.08379 4.08574C7.04513 5.1661 6.46161 6.63139 6.46161 8.15925C6.46161 14.8802 3.69238 16.8005 3.69238 16.8005H20.3078C20.3078 16.8005 17.5385 14.8802 17.5385 8.15925Z" stroke="#596366" stroke-width="1.75" stroke-linecap="round" stroke-linejoin="round"/>
<path d="M13.3477 20.6406C13.1854 20.9316 12.9524 21.1732 12.6722 21.3411C12.3919 21.509 12.0742 21.5974 11.7507 21.5974C11.4273 21.5974 11.1096 21.509 10.8293 21.3411C10.549 21.1732 10.3161 20.9316 10.1538 20.6406" stroke="#596366" stroke-width="1.75" stroke-linecap="round" stroke-linejoin="round"/>
</svg>
