<svg width="24" height="24" viewBox="0 0 24 24" fill="none" xmlns="http://www.w3.org/2000/svg">
<g clip-path="url(#clip0)">
<path d="M21.3838 9.88961L20.6767 9.1825L21.3838 9.88961ZM9.75795 21.5154L9.05084 20.8083L9.05084 20.8083L9.75795 21.5154ZM5.26067 18.3741L4.55356 19.0812L5.26067 18.3741ZM21.0339 5.63618L20.4192 4.84745L21.0339 5.63618ZM18.0004 2.602L17.2118 1.98708L18.0004 2.602ZM1.41409 13.1716C-0.148006 14.7337 -0.148001 17.2663 1.4141 18.8284L2.82831 17.4142C2.04726 16.6332 2.04726 15.3668 2.82831 14.5858L1.41409 13.1716ZM13.0399 1.54575L1.41409 13.1716L2.82831 14.5858L14.4541 2.95996L13.0399 1.54575ZM18.6968 1.54575C17.1347 -0.0163457 14.602 -0.0163484 13.0399 1.54575L14.4541 2.95996C15.2352 2.17892 16.5015 2.17892 17.2826 2.95996L18.6968 1.54575ZM18.9511 4.68517C18.4977 4.23175 18.4945 3.59463 18.789 3.21692L17.2118 1.98708C16.2499 3.22072 16.4245 4.98699 17.5369 6.09938L18.9511 4.68517ZM20.4192 4.84745C20.0415 5.14184 19.4045 5.13852 18.9511 4.68517L17.5369 6.09938C18.6491 7.21161 20.415 7.38639 21.6487 6.42492L20.4192 4.84745ZM22.0909 10.5967C23.653 9.03462 23.653 6.50196 22.0909 4.93986L20.6767 6.35408C21.4577 7.13512 21.4577 8.40146 20.6767 9.1825L22.0909 10.5967ZM10.4651 22.2225L22.0909 10.5967L20.6767 9.1825L9.05084 20.8083L10.4651 22.2225ZM4.80821 22.2225C6.3703 23.7846 8.90296 23.7846 10.4651 22.2225L9.05084 20.8083C8.2698 21.5894 7.00347 21.5894 6.22242 20.8083L4.80821 22.2225ZM4.63833 22.0527L4.80821 22.2225L6.22242 20.8083L6.05254 20.6384L4.63833 22.0527ZM4.55356 19.0812C5.04515 19.5728 5.00703 20.2682 4.63833 20.6369L6.05254 22.0511C7.27728 20.8264 7.16325 18.8624 5.96778 17.667L4.55356 19.0812ZM2.99784 18.9964C3.36654 18.6277 4.06197 18.5896 4.55356 19.0812L5.96778 17.667C4.7723 16.4715 2.80836 16.3575 1.58362 17.5822L2.99784 18.9964ZM1.4141 18.8284L1.58209 18.9964L2.9963 17.5822L2.82831 17.4142L1.4141 18.8284ZM1.58362 17.5822C1.97352 17.1923 2.60599 17.1919 2.9963 17.5822L1.58209 18.9964C1.97324 19.3876 2.6071 19.3872 2.99784 18.9964L1.58362 17.5822ZM6.05254 20.6384C6.44304 21.029 6.44224 21.6614 6.05254 22.0511L4.63833 20.6369C4.24778 21.0275 4.24697 21.6613 4.63833 22.0527L6.05254 20.6384ZM21.6487 6.42492C21.4172 6.60535 20.9926 6.67001 20.6767 6.35408L22.0909 4.93986C21.5873 4.43629 20.86 4.50389 20.4192 4.84745L21.6487 6.42492ZM17.2826 2.95996C16.9665 2.64388 17.031 2.21894 17.2118 1.98708L18.789 3.21692C19.1326 2.77621 19.2001 2.04911 18.6968 1.54575L17.2826 2.95996Z" fill="#A0A8B0"/>
</g>
<defs>
<clipPath id="clip0">
<rect width="24" height="24" fill="white"/>
</clipPath>
</defs>
</svg>
