<svg width="24" height="24" viewBox="0 0 24 24" fill="none" xmlns="http://www.w3.org/2000/svg">
<path d="M17 21V19C17 16.7909 15.2091 15 13 15H5C2.79086 15 1 16.7909 1 19V21" stroke="#A0A8B0" stroke-width="2" stroke-linecap="round" stroke-linejoin="round"/>
<path fill-rule="evenodd" clip-rule="evenodd" d="M9 11C11.2091 11 13 9.20914 13 7C13 4.79086 11.2091 3 9 3C6.79086 3 5 4.79086 5 7C5 9.20914 6.79086 11 9 11Z" stroke="#A0A8B0" stroke-width="2" stroke-linecap="round" stroke-linejoin="round"/>
<path d="M23 21.0009V19.0009C22.9986 17.178 21.765 15.5866 20 15.1309" stroke="#A0A8B0" stroke-width="2" stroke-linecap="round" stroke-linejoin="round"/>
<path d="M16 3.13086C17.7699 3.58403 19.0078 5.17885 19.0078 7.00586C19.0078 8.83287 17.7699 10.4277 16 10.8809" stroke="#A0A8B0" stroke-width="2" stroke-linecap="round" stroke-linejoin="round"/>
</svg>
